<svg width="84" height="84" viewBox="0 0 84 84" fill="none" xmlns="http://www.w3.org/2000/svg">
<circle cx="42" cy="42" r="42" fill="#FF5964"/>
<path d="M42.3332 39.4444C46.8742 39.4444 50.5554 35.7632 50.5554 31.2222C50.5554 26.6812 46.8742 23 42.3332 23C37.7922 23 34.111 26.6812 34.111 31.2222C34.111 35.7632 37.7922 39.4444 42.3332 39.4444Z" stroke="#F5FDFF" stroke-width="3" stroke-linecap="round" stroke-linejoin="round"/>
<path d="M30 60V55.8889C30 53.7082 30.8663 51.6169 32.4082 50.0749C33.9502 48.533 36.0416 47.6667 38.2222 47.6667H46.4444C48.6251 47.6667 50.7165 48.533 52.2584 50.0749C53.8004 51.6169 54.6667 53.7082 54.6667 55.8889V60" stroke="#F5FDFF" stroke-width="3" stroke-linecap="round" stroke-linejoin="round"/>
</svg>
