<svg width="84" height="84" viewBox="0 0 84 84" fill="none" xmlns="http://www.w3.org/2000/svg">
<circle cx="42" cy="42" r="42" fill="#FF5964"/>
<path d="M42 46C45.3137 46 48 43.3137 48 40C48 36.6863 45.3137 34 42 34C38.6863 34 36 36.6863 36 40C36 43.3137 38.6863 46 42 46Z" stroke="#F5FDFF" stroke-width="2.5" stroke-linecap="round" stroke-linejoin="round"/>
<path d="M54.0211 51.8135L45.0047 60.7656C44.2078 61.556 43.1275 62 42.0011 62C40.8746 62 39.7943 61.556 38.9974 60.7656L29.9789 51.8135C27.6015 49.4529 25.9825 46.4454 25.3266 43.1713C24.6707 39.8972 25.0074 36.5035 26.2941 33.4193C27.5809 30.3352 29.7598 27.6991 32.5554 25.8445C35.351 23.9899 38.6378 23 42 23C45.3622 23 48.649 23.9899 51.4446 25.8445C54.2402 27.6991 56.4191 30.3352 57.7059 33.4193C58.9926 36.5035 59.3293 39.8972 58.6734 43.1713C58.0175 46.4454 56.3985 49.4529 54.0211 51.8135V51.8135Z" stroke="#F5FDFF" stroke-width="2.5" stroke-linecap="round" stroke-linejoin="round"/>
</svg>
