<svg width="30" height="28" viewBox="0 0 30 28" fill="none" xmlns="http://www.w3.org/2000/svg">
<path d="M1.5 26L3.45 20.15C1.76467 17.6574 1.15499 14.7056 1.73433 11.8435C2.31367 8.98129 4.04259 6.40351 6.59965 4.58941C9.15671 2.77531 12.3679 1.84835 15.6361 1.98086C18.9044 2.11337 22.0073 3.29635 24.3679 5.30984C26.7286 7.32333 28.1863 10.0303 28.4701 12.9275C28.7539 15.8246 27.8444 18.7148 25.9108 21.0607C23.9772 23.4065 21.151 25.0484 17.9577 25.681C14.7644 26.3136 11.4213 25.894 8.55 24.5L1.5 26" stroke="white" stroke-width="2.75" stroke-linecap="round" stroke-linejoin="round"/>
<path d="M15 14V14.0158" stroke="white" stroke-width="2.75" stroke-linecap="round" stroke-linejoin="round"/>
<path d="M9 14V14.0158" stroke="white" stroke-width="2.75" stroke-linecap="round" stroke-linejoin="round"/>
<path d="M21 14V14.0158" stroke="white" stroke-width="2.75" stroke-linecap="round" stroke-linejoin="round"/>
</svg>
